<svg width="11" height="11" viewBox="0 0 11 11" fill="none" xmlns="http://www.w3.org/2000/svg">
<path fill-rule="evenodd" clip-rule="evenodd" d="M10.7984 0.20194C10.8624 0.265791 10.9132 0.341643 10.9479 0.425152C10.9825 0.50866 11.0003 0.598185 11.0003 0.688598C11.0003 0.779011 10.9825 0.868535 10.9479 0.952044C10.9132 1.03555 10.8624 1.1114 10.7984 1.17526L1.17525 10.7984C1.04618 10.9275 0.871122 11 0.68859 11C0.506059 11 0.331003 10.9275 0.201933 10.7984C0.0728637 10.6694 0.00035333 10.4943 0.000353329 10.3118C0.000353327 10.1292 0.0728637 9.95417 0.201933 9.82511L9.8251 0.20194C9.88895 0.137928 9.9648 0.0871412 10.0483 0.052489C10.1318 0.0178367 10.2213 0 10.3118 0C10.4022 0 10.4917 0.0178367 10.5752 0.052489C10.6587 0.0871412 10.7346 0.137928 10.7984 0.20194Z" fill="#9EA8C2"/>
<path fill-rule="evenodd" clip-rule="evenodd" d="M0.20194 0.20194C0.137928 0.265791 0.0871412 0.341643 0.052489 0.425152C0.0178367 0.50866 0 0.598185 0 0.688598C0 0.779011 0.0178367 0.868535 0.052489 0.952044C0.0871412 1.03555 0.137928 1.1114 0.20194 1.17526L9.8251 10.7984C9.95417 10.9275 10.1292 11 10.3118 11C10.4943 11 10.6693 10.9275 10.7984 10.7984C10.9275 10.6694 11 10.4943 11 10.3118C11 10.1292 10.9275 9.95417 10.7984 9.82511L1.17525 0.20194C1.1114 0.137928 1.03555 0.0871412 0.952044 0.052489C0.868535 0.0178367 0.77901 0 0.688598 0C0.598185 0 0.50866 0.0178367 0.425152 0.052489C0.341643 0.0871412 0.265791 0.137928 0.20194 0.20194Z" fill="#9EA8C2"/>
</svg>
